<?xml version="1.0" ?>
<!-- Uploaded to: SVG Repo, www.svgrepo.com, Generator: SVG Repo Mixer Tools -->
<svg width="800px" height="800px" viewBox="0 0 20 20" version="1.1" xmlns="http://www.w3.org/2000/svg">
<g id="layer1">
<path d="M 0 1 L 0 2 L 2 2 L 2 1 L 0 1 z M 4 1 L 4 12 L 7 12 L 7 1 L 4 1 z M 8 1 L 8 20 L 11 20 L 11 1 L 8 1 z M 12 1 L 12 8 L 15 8 L 15 1 L 12 1 z M 17 1 L 17 2 L 19 2 L 19 1 L 17 1 z M 5 2 L 6 2 L 6 11 L 5 11 L 5 2 z M 9 2 L 10 2 L 10 19 L 9 19 L 9 2 z M 13 2 L 14 2 L 14 7 L 13 7 L 13 2 z " style="fill:#222222; fill-opacity:1; stroke:none; stroke-width:0px;"/>
</g>
</svg>