<?xml version="1.0" ?>
<!-- Uploaded to: SVG Repo, www.svgrepo.com, Generator: SVG Repo Mixer Tools -->
<svg width="800px" height="800px" viewBox="0 0 20 20" version="1.1" xmlns="http://www.w3.org/2000/svg">
<g id="layer1">
<path d="M 8 1 L 8 20 L 11 20 L 11 1 L 8 1 z M 9 2 L 10 2 L 10 19 L 9 19 L 9 2 z M 4 5 L 4 16 L 7 16 L 7 5 L 4 5 z M 5 6 L 6 6 L 6 15 L 5 15 L 5 6 z M 12 7 L 12 14 L 15 14 L 15 7 L 12 7 z M 13 8 L 14 8 L 14 13 L 13 13 L 13 8 z M 0 10 L 0 11 L 2 11 L 2 10 L 0 10 z M 17 10 L 17 11 L 19 11 L 19 10 L 17 10 z " style="fill:#222222; fill-opacity:1; stroke:none; stroke-width:0px;"/>
</g>
</svg>