<?xml version="1.0" ?>
<!-- Uploaded to: SVG Repo, www.svgrepo.com, Generator: SVG Repo Mixer Tools -->
<svg width="800px" height="800px" viewBox="0 0 20 20" version="1.1" xmlns="http://www.w3.org/2000/svg">
<g id="layer1">
<path d="M 18 1 L 18 3 L 19 3 L 19 1 L 18 1 z M 12 5 L 12 8 L 19 8 L 19 5 L 12 5 z M 13 6 L 18 6 L 18 7 L 13 7 L 13 6 z M 0 9 L 0 12 L 19 12 L 19 9 L 0 9 z M 1 10 L 18 10 L 18 11 L 1 11 L 1 10 z M 8 13 L 8 16 L 19 16 L 19 13 L 8 13 z M 9 14 L 18 14 L 18 15 L 9 15 L 9 14 z M 18 18 L 18 20 L 19 20 L 19 18 L 18 18 z " style="fill:#222222; fill-opacity:1; stroke:none; stroke-width:0px;"/>
</g>
</svg>