<?xml version="1.0" ?>
<!-- Uploaded to: SVG Repo, www.svgrepo.com, Generator: SVG Repo Mixer Tools -->
<svg width="800px" height="800px" viewBox="0 0 20 20" version="1.1" xmlns="http://www.w3.org/2000/svg">
<g id="layer1">
<path d="M 9 1 L 9 3 L 10 3 L 10 1 L 9 1 z M 6 5 L 6 8 L 13 8 L 13 5 L 6 5 z M 7 6 L 12 6 L 12 7 L 7 7 L 7 6 z M 0 9 L 0 12 L 19 12 L 19 9 L 0 9 z M 1 10 L 18 10 L 18 11 L 1 11 L 1 10 z M 4 13 L 4 16 L 15 16 L 15 13 L 4 13 z M 5 14 L 14 14 L 14 15 L 5 15 L 5 14 z M 9 18 L 9 20 L 10 20 L 10 18 L 9 18 z " style="fill:#222222; fill-opacity:1; stroke:none; stroke-width:0px;"/>
</g>
</svg>