<?xml version="1.0" encoding="iso-8859-1"?>
<!-- Uploaded to: SVG Repo, www.svgrepo.com, Generator: SVG Repo Mixer Tools -->
<svg fill="#000000" height="800px" width="800px" version="1.1" id="Layer_1" xmlns="http://www.w3.org/2000/svg" xmlns:xlink="http://www.w3.org/1999/xlink" 
	 viewBox="0 0 512 512" xml:space="preserve">
<g>
	<g>
		<path d="M446.943,269.017h-16.968V142.968c28.55-10.128,49.059-37.395,49.059-69.373C479.034,33.015,446.021,0,405.441,0
			c-40.581,0-73.595,33.015-73.595,73.595c0,31.978,20.509,59.245,49.06,69.373v126.049h-99.774V142.968
			c28.551-10.128,49.06-37.394,49.06-69.373C330.193,33.015,297.179,0,256.599,0c-40.58,0-73.595,33.015-73.595,73.595
			c0,31.978,20.509,59.245,49.06,69.373v126.049h-99.773V142.968c28.551-10.128,49.06-37.394,49.06-69.373
			C181.351,33.015,148.338,0,107.758,0c-40.58,0-73.595,33.015-73.595,73.595c0,31.978,20.509,59.245,49.06,69.373v126.049H65.058
			c-32.461,0-58.869,26.409-58.869,58.869v125.244C6.189,485.591,32.598,512,65.058,512h381.885
			c32.461,0,58.868-26.409,58.868-58.869V327.886C505.811,295.426,479.404,269.017,446.943,269.017z M405.441,49.069
			c13.523,0,24.525,11.003,24.525,24.526c0,13.523-11.003,24.525-24.525,24.525c-13.525,0-24.526-11.003-24.526-24.525
			C380.915,60.071,391.918,49.069,405.441,49.069z M256.599,49.069c13.523,0,24.526,11.003,24.526,24.526
			c0,13.523-11.003,24.525-24.526,24.525c-13.523,0-24.526-11.003-24.526-24.525C232.073,60.071,243.076,49.069,256.599,49.069z
			 M107.758,49.069c13.523,0,24.526,11.003,24.526,24.526c0,13.523-11.003,24.525-24.526,24.525
			c-13.523,0-24.526-11.003-24.526-24.525C83.232,60.071,94.235,49.069,107.758,49.069z M446.943,462.931H65.058
			c-5.313,0-9.801-4.488-9.801-9.801V327.886c0-5.313,4.488-9.801,9.801-9.801h381.885c5.311,0,9.799,4.488,9.799,9.801v125.244h0
			C456.742,458.443,452.254,462.931,446.943,462.931z"/>
	</g>
</g>
</svg>