<?xml version="1.0" encoding="iso-8859-1"?>
<!-- Uploaded to: SVG Repo, www.svgrepo.com, Generator: SVG Repo Mixer Tools -->
<svg fill="#000000" height="800px" width="800px" version="1.1" id="Layer_1" xmlns="http://www.w3.org/2000/svg" xmlns:xlink="http://www.w3.org/1999/xlink" 
	 viewBox="0 0 511.989 511.989" xml:space="preserve">
<g>
	<g>
		<g>
			<path d="M0,408.515c0,8.981,5.611,16.981,14.037,20.053l220.629,80.235V209.902L0,120.494V408.515z M160.021,323.395
				l40.085-14.592c11.136-4.011,23.317,1.685,27.349,12.757c4.032,11.072-1.685,23.317-12.757,27.349l-40.107,14.592
				c-2.411,0.875-4.864,1.28-7.296,1.28c-8.704,0-16.896-5.376-20.053-14.059C143.232,339.651,148.928,327.427,160.021,323.395z
				 M39.723,367.129l40.085-14.592c11.029-4.032,23.317,1.685,27.349,12.779c4.011,11.072-1.685,23.296-12.757,27.328
				l-40.107,14.592c-2.389,0.875-4.864,1.28-7.275,1.28c-8.725,0-16.896-5.376-20.053-14.037
				C22.933,383.406,28.651,371.161,39.723,367.129z"/>
			<path d="M277.323,209.895v75.691c5.248-2.923,11.52-3.84,17.557-1.643l40.107,14.571c11.072,4.032,16.789,16.277,12.757,27.349
				c-3.157,8.661-11.328,14.059-20.053,14.059c-2.411,0-4.885-0.427-7.275-1.301l-40.107-14.571
				c-1.131-0.405-1.963-1.237-2.987-1.813v186.56l220.629-80.213c8.448-3.072,14.037-11.093,14.037-20.053V120.509L277.323,209.895z
				 M468.043,369.618c-3.157,8.661-11.328,14.059-20.053,14.059c-2.432,0-4.885-0.427-7.296-1.301l-40.085-14.571
				c-11.072-4.032-16.789-16.277-12.757-27.349c4.032-11.072,16.299-16.789,27.328-12.757l40.107,14.571
				C466.357,346.301,472.053,358.546,468.043,369.618z"/>
			<path d="M263.294,4.466c-4.715-1.707-9.877-1.707-14.592,0L26.963,85.106l229.035,87.253l229.035-87.253L263.294,4.466z"/>
		</g>
	</g>
</g>
</svg>