<?xml version="1.0" ?>
<!-- Uploaded to: SVG Repo, www.svgrepo.com, Generator: SVG Repo Mixer Tools -->
<svg width="800px" height="800px" viewBox="0 0 20 20" version="1.1" xmlns="http://www.w3.org/2000/svg">
<g id="layer1">
<path d="M 12.515625 0 C 12.233413 -0.0087943 11.999891 0.2176511 12 0.5 L 12 12.074219 L 13 11.574219 L 13 2.6171875 L 18.691406 14 L 16 14 L 16 15 L 19.5 15 C 19.768681 15.000179 19.98948 14.788006 20 14.519531 C 20.00302 14.435656 19.984896 14.352364 19.947266 14.277344 L 12.947266 0.27734375 C 12.865391 0.11250375 12.699581 0.00597 12.515625 0 z M 10 5 C 6.139929 5 3 8.1399291 3 12 A 0.50005 0.50005 0 0 0 3 12.035156 L 3 13 L 1 11 L 1 12.5 L 3.5 15 L 6 12.5 L 6 11 L 4 13 L 4 12 C 4 8.6803691 6.680369 6 10 6 A 0.50005 0.50005 0 1 0 10 5 z M 14.53125 12.001953 C 14.447957 11.996753 14.360394 12.011444 14.277344 12.052734 L 0.27734375 19.052734 C 0.10882575 19.136554 0.0015999987 19.30789 0 19.496094 C -0.0021000013 19.773749 0.222337 19.99998 0.5 20 L 14.5 20 C 14.776131 19.999972 14.999972 19.776131 15 19.5 L 15 12.5 C 14.99972 12.221743 14.781128 12.017563 14.53125 12.001953 z M 14 13.308594 L 14 19 L 2.6171875 19 L 14 13.308594 z " style="fill:#222222; fill-opacity:1; stroke:none; stroke-width:0px;"/>
</g>
</svg>