<?xml version="1.0" ?>
<!-- Uploaded to: SVG Repo, www.svgrepo.com, Generator: SVG Repo Mixer Tools -->
<svg width="800px" height="800px" viewBox="0 0 20 20" version="1.1" xmlns="http://www.w3.org/2000/svg">
<g id="layer1">
<path d="M 7.484375 0 C 7.3004182 0.00597 7.1346092 0.11250375 7.0527344 0.27734375 L 0.052734375 14.277344 C 0.015110135 14.352368 -0.0030251 14.435656 0 14.519531 C 0.01052098 14.788006 0.23131897 15.000179 0.5 15 L 4 15 L 4 14 L 1.3085938 14 L 7 2.6171875 L 7 11.574219 L 8 12.074219 L 8 0.5 C 8.0001088 0.2176511 7.7665869 -0.0087943 7.484375 0 z M 10 5 A 0.50005 0.50005 0 1 0 10 6 C 13.319631 6 16 8.6803691 16 12 L 16 13 L 14 11 L 14 12.5 L 16.5 15 L 19 12.5 L 19 11 L 17 13 L 17 12.035156 A 0.50005 0.50005 0 0 0 17 12 C 17 8.1399291 13.860071 5 10 5 z M 5.46875 12.001953 C 5.218872 12.017566 5.0002795 12.221743 5 12.5 L 5 19.5 C 5.0000276 19.776131 5.2238691 19.999972 5.5 20 L 19.5 20 C 19.777663 19.99998 20.0021 19.773749 20 19.496094 C 19.998356 19.30789 19.891174 19.136554 19.722656 19.052734 L 5.7226562 12.052734 C 5.6396014 12.011444 5.5520427 11.996749 5.46875 12.001953 z M 6 13.308594 L 17.382812 19 L 6 19 L 6 13.308594 z " style="fill:#222222; fill-opacity:1; stroke:none; stroke-width:0px;"/>
</g>
</svg>