<?xml version="1.0" ?>
<!-- Uploaded to: SVG Repo, www.svgrepo.com, Generator: SVG Repo Mixer Tools -->
<svg width="800px" height="800px" viewBox="0 0 20 20" version="1.1" xmlns="http://www.w3.org/2000/svg">
<g id="layer1">
<path d="M 9 1 L 9 3 L 10 3 L 10 1 L 9 1 z M 7.484375 3 A 0.50005 0.50005 0 0 0 7.0527344 3.2773438 L 0.052734375 17.277344 A 0.50005 0.50005 0 0 0 0 17.519531 A 0.50005 0.50005 0 0 0 0.5 18 L 7.5 18 A 0.50005 0.50005 0 0 0 8 17.5 L 8 3.5 A 0.50005 0.50005 0 0 0 7.484375 3 z M 11.503906 3 A 0.50005 0.50005 0 0 0 11 3.5 L 11 17.5 A 0.50005 0.50005 0 0 0 11.5 18 L 18.5 18 A 0.50005 0.50005 0 0 0 18.947266 17.277344 L 11.947266 3.2773438 A 0.50005 0.50005 0 0 0 11.503906 3 z M 7 5.6171875 L 7 17 L 1.3085938 17 L 7 5.6171875 z M 12 5.6171875 L 17.691406 17 L 12 17 L 12 5.6171875 z M 9 6 L 9 9 L 10 9 L 10 6 L 9 6 z M 9 12 L 9 15 L 10 15 L 10 12 L 9 12 z M 9 18 L 9 20 L 10 20 L 10 18 L 9 18 z " style="fill:#222222; fill-opacity:1; stroke:none; stroke-width:0px;"/>
</g>
</svg>