<?xml version="1.0" encoding="iso-8859-1"?>
<!-- Uploaded to: SVG Repo, www.svgrepo.com, Generator: SVG Repo Mixer Tools -->
<svg fill="#000000" height="800px" width="800px" version="1.1" id="Layer_1" xmlns="http://www.w3.org/2000/svg" xmlns:xlink="http://www.w3.org/1999/xlink" 
	 viewBox="0 0 511.999 511.999" xml:space="preserve">
<g>
	<g>
		<path d="M446.325,441.966l-91.029-160.775c-4.531-8.004-14.693-10.818-22.697-6.286c-8.004,4.531-10.818,14.693-6.286,22.697
			l76.953,135.915H45.238l179.013-316.175l49.261,87.004c4.531,8.005,14.696,10.821,22.697,6.286
			c8.004-4.531,10.818-14.693,6.286-22.697l-63.752-112.6c-6.371-11.251-22.617-11.247-28.984,0L2.179,441.966
			c-6.27,11.074,1.736,24.86,14.492,24.86h415.161C444.6,466.826,452.589,453.029,446.325,441.966z"/>
	</g>
</g>
<g>
	<g>
		<path d="M507.121,50.051c-6.503-6.505-17.048-6.503-23.552,0L258.705,274.915c-13.665-4.851-29.503-1.812-40.439,9.124
			c-15.152,15.151-15.152,39.716,0,54.867c15.151,15.151,39.716,15.151,54.867,0c10.936-10.936,13.975-26.774,9.124-40.439
			L507.121,73.603C513.625,67.1,513.625,56.555,507.121,50.051z"/>
	</g>
</g>
</svg>