<?xml version="1.0" ?>
<!-- Uploaded to: SVG Repo, www.svgrepo.com, Generator: SVG Repo Mixer Tools -->
<svg width="800px" height="800px" viewBox="0 0 20 20" version="1.1" xmlns="http://www.w3.org/2000/svg">
<g id="layer1">
<path d="M 2.4804688 1 A 0.50005 0.50005 0 0 0 2 1.5 L 2 8.5 A 0.50005 0.50005 0 0 0 2.5 9 L 16.5 9 A 0.50005 0.50005 0 0 0 17 8.484375 A 0.50005 0.50005 0 0 0 16.722656 8.0527344 L 2.7226562 1.0527344 A 0.50005 0.50005 0 0 0 2.4804688 1 z M 3 2.3085938 L 14.382812 8 L 3 8 L 3 2.3085938 z M 0 10 L 0 11 L 2 11 L 2 10 L 0 10 z M 5 10 L 5 11 L 8 11 L 8 10 L 5 10 z M 11 10 L 11 11 L 14 11 L 14 10 L 11 10 z M 17 10 L 17 11 L 19 11 L 19 10 L 17 10 z M 2.5 12 A 0.50005 0.50005 0 0 0 2 12.5 L 2 19.5 A 0.50005 0.50005 0 0 0 2.7226562 19.947266 L 16.722656 12.947266 A 0.50005 0.50005 0 0 0 17 12.503906 A 0.50005 0.50005 0 0 0 16.5 12 L 2.5 12 z M 3 13 L 14.382812 13 L 3 18.691406 L 3 13 z " style="fill:#222222; fill-opacity:1; stroke:none; stroke-width:0px;"/>
</g>
</svg>