<!DOCTYPE svg PUBLIC "-//W3C//DTD SVG 1.1//EN" "http://www.w3.org/Graphics/SVG/1.1/DTD/svg11.dtd">
<!-- Uploaded to: SVG Repo, www.svgrepo.com, Transformed by: SVG Repo Mixer Tools -->
<svg fill="#000000" width="800px" height="800px" viewBox="0 0 24 24" id="settings-alt-2" data-name="Line Color" xmlns="http://www.w3.org/2000/svg" class="icon line-color">
<g id="SVGRepo_bgCarrier" stroke-width="0"/>
<g id="SVGRepo_tracerCarrier" stroke-linecap="round" stroke-linejoin="round"/>
<g id="SVGRepo_iconCarrier">
<path id="primary" d="M20.5,20.5h0a2,2,0,0,1-2.83,0l-5.21-5.21A6.59,6.59,0,0,1,8,15.84a6.5,6.5,0,0,1-5-5.76,6.42,6.42,0,0,1,.65-3.47L8,11l2.5-.5L11,8,6.61,3.68A6.42,6.42,0,0,1,10.08,3a6.5,6.5,0,0,1,5.76,5,6.59,6.59,0,0,1-.55,4.42l5.21,5.21A2,2,0,0,1,20.5,20.5Z" style="fill: none; stroke: #000000; stroke-linecap: round; stroke-linejoin: round; stroke-width: 2;"/>
</g>
</svg>